<mxfile host="app.diagrams.net" modified="2024-06-08T18:01:30.020Z" agent="Mozilla/5.0 (Windows NT 10.0; Win64; x64) AppleWebKit/537.36 (KHTML, like Gecko) Chrome/125.0.0.0 Safari/537.36" version="24.5.2" etag="bxMm72lk6nikbXDB5pFX" type="github">
  <diagram name="Страница — 1" id="XnayXq7FRGgAeNd-JU4h">
    <mxGraphModel>
      <root>
        <mxCell id="0" />
        <mxCell id="1" parent="0" />
      </root>
    </mxGraphModel>
  </diagram>
</mxfile>
